<svg width="1375" height="680" viewBox="0 0 1375 680" fill="none" xmlns="http://www.w3.org/2000/svg">
<g clip-path="url(#clip0_195_5616)" filter="url(#filter0_f_195_5616)">
<path fill-rule="evenodd" clip-rule="evenodd" d="M1298.27 347.818L1295.45 351.335C1289.88 358.295 1281.39 361.528 1273.13 360.686L1250.52 283.652L1248.96 283.004L1252.77 278.241C1257.12 273.583 1263.07 270.741 1269.43 270.282C1275.79 269.823 1282.09 271.782 1287.07 275.766L1307.44 292.076L1307.16 292.703C1299.61 291.671 1291.94 293.468 1285.64 297.748C1282.34 299.989 1279.56 302.904 1277.47 306.3C1273.86 312.228 1272.75 319.343 1274.37 326.093C1275.4 326.014 1276.41 325.777 1277.36 325.391C1276.33 321.273 1276.46 316.949 1277.75 312.906C1279.69 306.82 1284.09 301.777 1289.79 298.706C1293.3 296.863 1297.16 295.773 1301.11 295.509C1305.07 295.244 1309.04 295.809 1312.76 297.169L1313.22 297.477C1316.82 301.966 1318.79 307.547 1318.79 313.299C1318.79 319.051 1316.83 324.632 1313.24 329.121L1301.36 343.955L1300.22 344.441L1299.15 344.289C1295.04 343.701 1291.12 342.196 1287.68 339.887L1286.43 342.714C1289.94 344.983 1293.89 346.507 1298.02 347.193L1298.27 347.818Z" fill="#C9B7EF"/>
<path fill-rule="evenodd" clip-rule="evenodd" d="M1237.67 337.416L1259.86 355.185C1264.9 359.238 1271.32 361.177 1277.78 360.6L1294.76 322.089C1296.82 317.387 1296.95 312.066 1295.1 307.295C1293.25 302.525 1289.58 298.696 1284.89 296.65L1250.18 281.475L1232.68 303.34C1229.06 308.629 1227.57 315.077 1228.5 321.395C1229.42 327.713 1232.7 333.434 1237.67 337.416ZM1265.96 323.31C1264.74 322.041 1263.85 320.489 1263.38 318.791C1262.9 317.093 1262.86 315.301 1263.24 313.576C1263.62 311.85 1264.43 310.244 1265.58 308.898C1266.73 307.553 1268.19 306.511 1269.83 305.864C1271.48 305.217 1273.25 304.986 1275 305.19C1276.75 305.394 1278.42 306.029 1279.87 307.036C1281.31 308.043 1282.48 309.393 1283.27 310.965C1284.07 312.537 1284.46 314.284 1284.42 316.049C1284.37 318.171 1283.69 320.234 1282.47 321.977C1281.25 323.719 1279.54 325.064 1277.57 325.84C1275.59 326.616 1273.43 326.789 1271.36 326.337C1269.29 325.885 1267.41 324.828 1265.94 323.3L1265.96 323.31Z" fill="#7723F2"/>
<path fill-rule="evenodd" clip-rule="evenodd" d="M1301.61 343.64L1298.43 347.61C1293.93 346.9 1289.64 345.218 1285.85 342.682L1287.61 338.628C1291.72 341.579 1296.57 343.316 1301.61 343.64ZM1309.32 293.579L1307.47 292.098C1299.72 290.971 1291.84 292.769 1285.38 297.14C1282.03 299.413 1279.2 302.374 1277.09 305.827C1275.23 308.894 1274 312.307 1273.49 315.864C1272.98 319.421 1273.19 323.048 1274.11 326.53C1275.58 326.494 1277.02 326.156 1278.35 325.537C1277.19 321.405 1277.27 317.035 1278.56 312.959C1280.5 307.039 1284.68 302.117 1290.2 299.231C1295.36 296.492 1301.28 295.502 1307.07 296.407C1309.42 296.754 1311.72 297.403 1313.9 298.338C1312.59 296.559 1311.05 294.959 1309.32 293.579Z" fill="#F5F5F7"/>
</g>
<g clip-path="url(#clip1_195_5616)">
<mask id="mask0_195_5616" style="mask-type:luminance" maskUnits="userSpaceOnUse" x="1100" y="402" width="116" height="116">
<path d="M1100 432.753L1184.58 402L1215.34 486.583L1130.75 517.336L1100 432.753Z" fill="white"/>
</mask>
<g mask="url(#mask0_195_5616)">
<path d="M1157.52 411.841L1127.07 422.912C1112.12 428.347 1104.41 444.871 1109.84 459.82L1120.91 490.27C1126.35 505.218 1142.87 512.93 1157.82 507.495L1188.27 496.424C1203.22 490.989 1210.93 474.465 1205.49 459.516L1194.42 429.067C1188.99 414.118 1172.46 406.406 1157.52 411.841Z" fill="#B5F2C3"/>
<path fill-rule="evenodd" clip-rule="evenodd" d="M1183.93 498.002L1158.11 507.388C1152.56 509.408 1146.8 509.618 1141.46 508.316L1141.1 507.389C1137.08 496.329 1139.49 488.81 1140.83 484.636L1141.26 483.288C1134.95 483.661 1129.89 482.043 1127.44 478.289C1125.62 475.512 1125.56 471.825 1126.74 467.884C1121.4 461.626 1120.37 453.376 1124.73 448.179C1126.61 446.005 1129.19 444.573 1132.03 444.143C1132.26 442.139 1133 440.258 1134.29 438.711C1138.04 434.239 1145.2 433.883 1151.27 437.495C1163.91 426.37 1177.04 422.573 1183.02 428.157C1188.07 432.853 1187.14 439.374 1187.14 439.374C1192.55 447.394 1183.39 463.016 1167.14 473.495C1163.79 475.674 1156.19 479.586 1155.75 479.746C1163.87 479.908 1178.97 490.05 1185.95 495.271C1185.32 496.173 1184.63 497.093 1183.93 498.002Z" fill="url(#paint0_linear_195_5616)"/>
<path fill-rule="evenodd" clip-rule="evenodd" d="M1200.46 488.228C1197.25 491.874 1193.17 494.652 1188.6 496.302L1179.26 499.699C1171.41 488.591 1159.91 481.403 1149.49 480.507C1142.34 479.881 1136.79 477.618 1135.41 471.3C1158.47 472.306 1183.57 450.62 1187.19 439.357C1192.03 445.894 1185.66 459.848 1172.75 469.573C1177.63 470.044 1190.06 472.21 1198.38 484.51C1199.21 485.858 1199.89 487.09 1200.46 488.228Z" fill="url(#paint1_linear_195_5616)"/>
<path d="M1138.96 439.535C1137.82 440.656 1137.07 442.109 1136.83 443.675C1136.67 444.731 1136.75 445.807 1137.05 446.826C1137.36 447.846 1137.88 448.784 1138.6 449.576C1139.34 448.772 1140.1 447.978 1140.86 447.193L1141.09 446.959L1141.78 446.244L1141.84 446.187L1142.61 445.403L1142.81 445.22L1143.38 444.642L1143.63 444.401L1144.19 443.862L1144.41 443.634C1145.97 442.127 1147.55 440.652 1149.17 439.21C1147.76 437.964 1145.91 437.304 1144.01 437.366C1142.11 437.428 1140.3 438.207 1138.95 439.542L1138.96 439.535Z" fill="#F0F0F0"/>
<path d="M1137.72 441.68C1137.2 442.19 1136.91 442.861 1136.81 443.617C1136.65 444.682 1136.73 445.767 1137.04 446.796C1137.35 447.825 1137.88 448.775 1138.59 449.578C1139.34 448.769 1140.1 447.97 1140.88 447.181C1141.18 446.86 1141.49 446.54 1141.8 446.222L1141.85 446.164L1142.63 445.372L1142.83 445.187C1143.57 444.435 1144.32 443.691 1145.07 442.953L1145.17 442.861C1142.62 440.579 1139.37 440.06 1137.72 441.68Z" fill="black"/>
<path d="M1128.61 449.819C1127.75 450.672 1127.08 451.692 1126.64 452.813C1126.2 453.935 1125.99 455.134 1126.04 456.335C1126.08 457.536 1126.38 458.714 1126.91 459.793C1127.43 460.872 1128.18 461.83 1129.1 462.606L1129.25 462.289C1129.29 462.277 1129.29 462.238 1129.3 462.215L1129.47 461.909L1129.5 461.88L1129.68 461.552L1129.74 461.455L1129.92 461.165L1129.94 461.12L1130.16 460.779L1130.22 460.699C1130.37 460.455 1130.52 460.213 1130.68 459.972L1130.73 459.915L1130.94 459.596L1130.99 459.539L1131.24 459.169C1131.27 459.157 1131.27 459.118 1131.3 459.089L1131.51 458.788L1131.58 458.708L1131.84 458.332C1131.87 458.32 1131.88 458.281 1131.89 458.258L1132.15 457.938L1132.2 457.864L1132.48 457.482L1132.52 457.409L1132.79 457.089L1132.86 456.986L1133.16 456.598L1133.19 456.547L1133.47 456.204L1133.55 456.118L1133.86 455.724L1133.9 455.673L1134.19 455.324L1134.28 455.216L1134.59 454.822L1134.62 454.81C1134.86 454.522 1135.09 454.237 1135.33 453.952L1135.37 453.901C1136.84 452.18 1138.35 450.499 1139.91 448.86C1138.22 447.667 1136.16 447.109 1134.09 447.285C1132.03 447.46 1130.08 448.358 1128.61 449.819Z" fill="#F0F0F0"/>
<path d="M1127.19 451.962C1126.61 452.567 1126.22 453.317 1126.08 454.135C1125.8 455.695 1125.94 457.294 1126.49 458.774C1127.03 460.255 1127.95 461.567 1129.17 462.582L1129.34 462.243C1129.38 462.23 1129.38 462.189 1129.4 462.165L1129.58 461.843L1129.61 461.813C1129.75 461.56 1129.9 461.309 1130.06 461.061L1130.08 461.013L1130.31 460.654L1130.38 460.57L1130.58 460.242L1130.62 460.188L1130.87 459.822L1130.92 459.745L1131.14 459.41L1131.19 459.349L1131.45 458.96C1131.49 458.948 1131.49 458.906 1131.52 458.876L1131.75 458.559L1131.82 458.474C1132.01 458.205 1132.21 457.937 1132.41 457.671L1132.47 457.587L1132.77 457.185L1132.82 457.107L1133.1 456.77L1133.16 456.669L1133.49 456.254L1133.53 456.2L1133.82 455.84L1133.91 455.749C1134.13 455.469 1134.36 455.191 1134.58 454.913L1134.68 454.799L1135.01 454.384L1135.05 454.371L1135.38 453.957L1135.48 453.842C1135.69 453.592 1135.91 453.343 1136.13 453.095C1133 450.556 1129.18 450.019 1127.19 451.962Z" fill="black"/>
</g>
</g>
<g clip-path="url(#clip2_195_5616)" filter="url(#filter1_f_195_5616)">
<path d="M215.126 526.509L181.417 511.945C173.47 508.512 164.485 508.376 156.438 511.568C148.392 514.759 141.942 521.016 138.509 528.963L131.227 545.817L224.862 586.272L232.143 569.417C235.577 561.471 235.713 552.486 232.521 544.439C229.33 536.392 223.072 529.942 215.126 526.509Z" fill="url(#paint2_linear_195_5616)"/>
<path d="M224.862 586.272L178.044 566.044L157.817 612.862L174.672 620.144C182.618 623.577 191.603 623.713 199.65 620.521C207.697 617.33 214.147 611.073 217.58 603.126L224.862 586.272Z" fill="url(#paint3_radial_195_5616)"/>
<path d="M178.044 566.044L131.227 545.817L123.945 562.672C120.512 570.618 120.376 579.603 123.567 587.65C126.759 595.697 133.016 602.147 140.963 605.58L157.817 612.862L178.044 566.044Z" fill="url(#paint4_linear_195_5616)"/>
</g>
<g clip-path="url(#clip3_195_5616)">
<path d="M1075.25 118.08L1047.43 110.626C1033.78 106.966 1019.74 115.071 1016.08 128.728L1008.63 156.546C1004.97 170.203 1013.07 184.241 1026.73 187.9L1054.55 195.354C1068.2 199.013 1082.24 190.909 1085.9 177.252L1093.35 149.433C1097.01 135.776 1088.91 121.739 1075.25 118.08Z" fill="black"/>
<path d="M1084.44 140.211L1056.43 132.705L1053.32 144.296L1081.33 151.802L1084.44 140.211Z" fill="url(#paint5_linear_195_5616)"/>
<path d="M1084.44 140.211L1056.43 132.705L1053.32 144.296L1081.33 151.802L1084.44 140.211Z" fill="url(#paint6_linear_195_5616)" fill-opacity="0.5"/>
<path d="M1045.56 173.276C1034.37 170.278 1027.71 158.745 1030.7 147.562C1032.35 142.42 1035.91 138.108 1040.65 135.522C1045.39 132.936 1050.95 132.273 1056.17 133.671C1061.38 135.07 1065.86 138.422 1068.68 143.032C1071.49 147.642 1072.42 153.157 1071.27 158.432C1068.28 169.6 1056.75 176.275 1045.56 173.276ZM1053.42 143.936C1051.01 143.292 1048.45 143.632 1046.29 144.88C1044.13 146.127 1042.55 148.181 1041.91 150.59C1041.27 152.998 1041.61 155.564 1042.86 157.722C1044.11 159.88 1046.16 161.454 1048.57 162.097C1050.98 162.743 1053.55 162.406 1055.71 161.16C1057.87 159.914 1059.45 157.861 1060.09 155.453C1060.74 153.045 1060.4 150.48 1059.15 148.32C1057.9 146.161 1055.85 144.586 1053.44 143.94L1053.42 143.936Z" fill="#42FF98"/>
<path d="M1041.81 150.531L1030.21 157.139C1031.01 160.964 1032.87 164.5 1035.58 167.349C1038.29 170.199 1041.74 172.251 1045.55 173.274L1048.56 162.056C1046.13 161.404 1044.05 159.824 1042.78 157.662C1041.52 155.501 1041.17 152.936 1041.81 150.531Z" fill="url(#paint7_linear_195_5616)"/>
<path d="M1041.81 150.531L1030.21 157.139C1031.01 160.964 1032.87 164.5 1035.58 167.349C1038.29 170.199 1041.74 172.251 1045.55 173.274L1048.56 162.056C1046.13 161.404 1044.05 159.824 1042.78 157.662C1041.52 155.501 1041.17 152.936 1041.81 150.531Z" fill="url(#paint8_linear_195_5616)" fill-opacity="0.5"/>
<path fill-rule="evenodd" clip-rule="evenodd" d="M1026.86 187.936C1024.67 187.334 1022.56 186.456 1020.58 185.326L1030.71 147.555L1042.3 150.66L1031.94 189.297L1026.86 187.936Z" fill="url(#paint9_linear_195_5616)"/>
</g>
<g clip-path="url(#clip4_195_5616)">
<mask id="mask1_195_5616" style="mask-type:alpha" maskUnits="userSpaceOnUse" x="659" y="489" width="95" height="95">
<path d="M661.889 539.576C659.001 533.058 658.82 525.66 661.387 519.009C663.954 512.358 669.058 506.999 675.576 504.111L703.224 491.862C709.742 488.974 717.14 488.794 723.791 491.361C730.442 493.928 735.8 499.031 738.688 505.549L750.938 533.197C753.826 539.715 754.006 547.113 751.439 553.764C748.872 560.415 743.768 565.774 737.25 568.662L709.602 580.911C703.085 583.799 695.686 583.979 689.036 581.412C682.385 578.846 677.026 573.742 674.138 567.224L661.889 539.576Z" fill="#D9D9D9"/>
</mask>
<g mask="url(#mask1_195_5616)">
<mask id="mask2_195_5616" style="mask-type:luminance" maskUnits="userSpaceOnUse" x="651" y="480" width="111" height="112">
<path d="M651 515L727.8 480.973L761.826 557.773L685.027 591.8L651 515Z" fill="white"/>
</mask>
<g mask="url(#mask2_195_5616)">
<path d="M727.8 480.973L651 515L685.027 591.8L761.826 557.773L727.8 480.973Z" fill="#FF5226"/>
<path fill-rule="evenodd" clip-rule="evenodd" d="M749.446 529.83L749.343 529.765L739.453 537.137L735.316 514.735L719.273 511.953L712.688 537.236L707.933 509.914L685.886 506.106L675.833 571.049L683.001 587.228L692.248 583.132L699.615 535.891L704.561 564.265L720.219 560.373L726.276 537.215L730.248 558.498L754.671 541.623L749.446 529.83Z" fill="#FFDD00"/>
<path fill-rule="evenodd" clip-rule="evenodd" d="M683.001 587.228L692.224 583.142L699.532 535.928L704.493 564.295L720.115 560.419L726.137 537.276L730.121 558.554L741.748 550.504L735.137 514.814L719.141 512.012L712.562 537.291L707.792 509.977L685.804 506.143L675.833 571.049L683.001 587.228Z" fill="#FFDD00"/>
</g>
</g>
</g>
<g clip-path="url(#clip5_195_5616)">
<path d="M375.516 337.325L342.419 330.27C326.171 326.807 310.193 337.171 306.73 353.419L299.675 386.516C296.212 402.764 306.576 418.742 322.824 422.205L355.921 429.26C372.168 432.723 388.147 422.359 391.61 406.111L398.665 373.014C402.128 356.766 391.764 340.788 375.516 337.325Z" fill="#7137FF"/>
<path d="M321.479 391.098C324.476 395.641 334.082 400.027 344.379 402.261C354.674 404.416 365.253 404.332 369.841 401.406C381.233 394.152 365.905 353.719 355.219 351.403C344.495 349.175 314.017 379.825 321.479 391.098Z" fill="#F5F5F7"/>
</g>
<g clip-path="url(#clip6_195_5616)" filter="url(#filter2_f_195_5616)">
<path fill-rule="evenodd" clip-rule="evenodd" d="M194.608 223.337C194.973 225.601 195.693 227.868 196.841 230.027L207.893 250.804C209.318 253.481 211.242 255.716 213.474 257.475L224.526 230.168L194.619 223.331L194.608 223.337ZM265.279 220.277L254.227 199.501C253.079 197.342 251.613 195.472 249.928 193.91L238.861 222.543L267.681 228.64C267.477 225.717 266.658 222.867 265.279 220.277Z" fill="#FFCA38"/>
<path fill-rule="evenodd" clip-rule="evenodd" d="M235.485 259.359L256.071 248.408C259.768 246.441 262.786 243.407 264.728 239.705C266.669 236.004 267.443 231.808 266.947 227.671L231.876 220.771C230.706 220.49 229.472 220.649 228.407 221.215C227.343 221.781 226.522 222.716 226.1 223.843L212.21 256.788C215.363 259.512 219.275 261.215 223.429 261.674C227.584 262.133 231.787 261.326 235.485 259.359Z" fill="#FFDC7C"/>
<path fill-rule="evenodd" clip-rule="evenodd" d="M225.996 190.782L205.413 201.732C201.477 203.824 198.319 207.128 196.409 211.153C194.499 215.179 193.938 219.711 194.809 224.078L231.483 232.897C232.654 233.18 233.889 233.024 234.954 232.457C236.018 231.891 236.838 230.954 237.258 229.825L250.387 194.411C247.25 191.274 243.186 189.227 238.794 188.574C234.403 187.921 229.916 188.695 225.996 190.782Z" fill="url(#paint10_linear_195_5616)"/>
</g>
<g clip-path="url(#clip7_195_5616)" filter="url(#filter3_f_195_5616)">
<path fill-rule="evenodd" clip-rule="evenodd" d="M939.141 546.68C931.678 549.947 925.818 556.046 922.851 563.634C919.884 571.222 920.053 579.678 923.32 587.141L936.664 617.622L938.309 616.399L953.813 593.263L953.397 590.301C949.571 586.766 947.132 581.982 946.52 576.81C945.908 571.637 947.162 566.415 950.057 562.085L967.151 536.597L967.652 534.198L939.141 546.68ZM1011.59 549.397L1010.13 551.025L994.613 574.143L995.047 577.097C998.877 580.637 1001.32 585.43 1001.92 590.61C1002.53 595.79 1001.27 601.016 998.36 605.346L981.238 630.867L980.632 633.312L1009.3 620.761C1016.76 617.494 1022.62 611.395 1025.59 603.807C1028.56 596.219 1028.39 587.763 1025.12 580.3L1011.59 549.397Z" fill="#242729"/>
<path fill-rule="evenodd" clip-rule="evenodd" d="M970.723 532.854L965.731 535.039L948.221 560.956C944.961 566.199 943.863 572.484 945.156 578.491C946.45 584.498 950.036 589.759 955.16 593.171C960.285 596.582 966.55 597.878 972.639 596.787C978.729 595.696 984.17 592.302 987.821 587.319L1012.33 551.079L1011.2 548.506C1007.95 541.078 1001.86 535.256 994.268 532.321C986.676 529.386 978.207 529.577 970.723 532.854Z" fill="url(#paint11_radial_195_5616)"/>
<path fill-rule="evenodd" clip-rule="evenodd" d="M935.99 616.082L937.141 618.711C940.419 626.198 946.545 632.073 954.172 635.043C961.798 638.013 970.3 637.836 977.808 634.549L982.779 632.372L1000.36 606.258C1002.11 603.643 1003.34 600.71 1003.96 597.625C1004.58 594.54 1004.59 591.364 1003.98 588.279C1003.37 585.194 1002.16 582.259 1000.42 579.643C998.673 577.028 996.428 574.781 993.812 573.033C991.196 571.285 988.259 570.069 985.17 569.454C982.08 568.84 978.899 568.839 975.807 569.451C972.714 570.064 969.772 571.279 967.148 573.026C964.524 574.772 962.269 577.017 960.512 579.632L935.983 616.065L935.99 616.082Z" fill="url(#paint12_linear_195_5616)"/>
</g>
<g clip-path="url(#clip8_195_5616)">
<path d="M1013.7 323.208L986.274 315.686C972.809 311.993 958.901 319.915 955.208 333.38L947.686 360.807C943.994 374.272 951.915 388.18 965.38 391.873L992.807 399.395C1006.27 403.087 1020.18 395.166 1023.87 381.701L1031.39 354.274C1035.09 340.809 1027.17 326.9 1013.7 323.208Z" fill="#1A1B22"/>
<path fill-rule="evenodd" clip-rule="evenodd" d="M1007.5 338.099L984.974 331.92L982.79 339.883L1005.32 346.062L1007.5 338.099ZM973.893 340.868L981.917 343.069L973.601 373.389L965.578 371.189L973.893 340.868ZM1004.44 349.247L1012.47 351.447L1004.15 381.768L996.129 379.567L1004.44 349.247Z" fill="#F5F5F7"/>
</g>
<g clip-path="url(#clip9_195_5616)">
<path d="M434.16 556H402.84C387.464 556 375 568.464 375 583.84V615.16C375 630.536 387.464 643 402.84 643H434.16C449.536 643 462 630.536 462 615.16V583.84C462 568.464 449.536 556 434.16 556Z" fill="black"/>
<path d="M451.391 591.729L451.217 590.4L440.376 587.849L445.979 579.494L445.318 578.602L436.566 582.885L437.54 571.209L436.566 570.719L431.137 580.105L424.751 566H423.55L425.116 579.808L409.143 567.031L407.751 567.381L420.053 582.885L395.64 574.739L394.509 576.015L416.312 588.425L386.313 590.96L386 592.778L417.216 596.168L391.116 617.597L392.334 619.24L423.254 602.286L417.164 632H419.026L430.963 604.034L438.201 625.882L439.454 624.921L436.757 603.003L447.772 615.535L448.45 614.276L440.255 598.773L451.878 602.898L452 601.622L442.291 593.809L451.391 591.746V591.729Z" fill="#FED42B"/>
</g>
<g clip-path="url(#clip10_195_5616)" filter="url(#filter4_f_195_5616)">
<path d="M116.368 304.227L76.8906 298.037C57.5102 294.998 39.336 308.246 36.2972 327.626L30.1074 367.104C27.0687 386.484 40.3162 404.658 59.6966 407.697L99.1743 413.887C118.555 416.926 136.729 403.678 139.768 384.298L145.957 344.82C148.996 325.44 135.749 307.265 116.368 304.227Z" fill="#E3E3E3"/>
<path fill-rule="evenodd" clip-rule="evenodd" d="M60.1929 407.775C53.6945 406.756 47.8664 404.045 43.1482 400.136C49.1206 397.329 54.8042 393.945 60.1179 390.033C95.3597 364.391 102.812 317.292 58.6626 310.369C54.206 309.671 49.6737 309.454 45.1686 309.782C49.1202 305.278 54.1487 301.846 59.7859 299.807C65.423 297.767 71.4856 297.186 77.4089 298.118L110.472 303.302C124.249 311.979 131.763 325.606 128.31 347.626C124.063 374.712 102.493 398.228 73.8702 409.919L60.2148 407.778L60.1929 407.775Z" fill="url(#paint13_linear_195_5616)"/>
<path fill-rule="evenodd" clip-rule="evenodd" d="M46.6233 310.021C42.2021 315.073 39.3057 321.285 38.2743 327.929L32.0904 367.369C31.132 373.472 31.7762 379.719 33.9591 385.491C36.1421 391.263 39.7882 396.36 44.5367 400.279C50.4723 397.468 56.1216 394.083 61.4041 390.172C96.3938 364.52 103.882 317.472 60.0284 310.596C55.6015 309.902 51.0991 309.69 46.6233 310.021Z" fill="#161616"/>
<path fill-rule="evenodd" clip-rule="evenodd" d="M48.596 310.349C44.1747 315.402 41.2784 321.614 40.247 328.257L34.063 367.698C33.1047 373.801 33.7488 380.048 35.9318 385.82C38.1147 391.592 41.7608 396.689 46.5094 400.607C52.445 397.797 58.0942 394.412 63.3768 390.501C98.3665 364.849 105.855 317.801 62.001 310.925C57.5742 310.231 53.0718 310.018 48.596 310.349Z" fill="url(#paint14_linear_195_5616)"/>
</g>
<g clip-path="url(#clip11_195_5616)">
<path d="M584.557 63.309L559.38 74.9066C547.02 80.6001 541.615 95.2353 547.309 107.595L558.907 132.773C564.6 145.133 579.235 150.537 591.595 144.843L616.773 133.246C629.133 127.552 634.537 112.917 628.843 100.557L617.246 75.3798C611.552 63.0197 596.917 57.6155 584.557 63.309Z" fill="#FC3F1D"/>
<path d="M602.364 122.25L609.745 118.85L590.506 77.0837L579.779 82.0246C568.997 86.9915 565.844 95.0764 569.557 103.137C572.52 109.569 577.369 111.926 584.711 113.269L581.589 131.82L589.577 128.14L593.024 107.398L588.163 106.65C582.262 105.723 578.997 104.392 576.675 99.3521C574.623 94.897 576.413 90.427 582.44 87.651L585.728 86.1362L602.37 122.264L602.364 122.25Z" fill="white"/>
</g>
<g clip-path="url(#clip12_195_5616)">
<path d="M861.428 18.004L833.415 8.47249C819.663 3.79326 804.722 11.1482 800.042 24.9002L790.511 52.913C785.832 66.665 793.187 81.6065 806.939 86.2857L834.951 95.8173C848.703 100.497 863.645 93.1416 868.324 79.3895L877.856 51.3768C882.535 37.6247 875.18 22.6833 861.428 18.004Z" fill="#FFE033"/>
<path d="M849.729 74.1365C843.614 76.6704 836.615 77.0649 829.898 74.7794C815.821 69.9894 808.951 55.5947 813.157 43.2337C817.104 31.6345 829.669 25.3272 841.267 29.2735C852.19 32.9901 857.243 44.0776 854.148 53.1735C851.249 61.6941 842.099 66.3009 833.75 63.4601C826.123 60.8648 822.686 53.3114 824.766 47.2008C826.633 41.7122 832.383 38.8631 837.421 40.5772C841.878 42.0938 843.54 46.2677 842.534 49.2219C841.661 51.7874 839.296 52.7175 837.601 52.1408C837.005 51.9378 836.828 51.7387 836.624 51.5133C837.225 51.1365 837.695 50.5874 837.974 49.9383C838.252 49.2891 838.326 48.5703 838.185 47.8765C838.044 47.1827 837.695 46.5463 837.184 46.051C836.672 45.5558 836.023 45.2249 835.321 45.102C834.657 44.9934 833.977 45.0295 833.33 45.2077C832.683 45.3859 832.083 45.702 831.573 46.134C830.698 46.8536 830.047 47.8045 829.693 48.8776C828.212 53.2311 831.345 57.4547 835.332 58.8111C841.154 60.7922 847.247 57.2443 849.204 51.4914C851.596 44.4635 847.422 36.5551 839.685 33.9225C830.692 30.8626 821.111 36.0167 818.08 44.926C814.652 55.0014 820.463 66.3817 831.496 70.1357C843.674 74.2795 856.733 67.4984 860.834 55.4483C865.241 42.4964 857.97 27.5315 843.531 22.6187C828.151 17.3855 811.64 25.768 806.466 40.9744C800.948 57.1914 810.072 75.4587 827.65 81.4394C836.046 84.2963 844.815 83.793 852.436 80.6436L849.745 74.1418L849.729 74.1365Z" fill="black"/>
</g>
<g clip-path="url(#clip13_195_5616)">
<mask id="mask3_195_5616" style="mask-type:luminance" maskUnits="userSpaceOnUse" x="331" y="23" width="85" height="85">
<path d="M341.201 23L415.504 33.2014L405.303 107.504L331 97.303L341.201 23Z" fill="white"/>
</mask>
<g mask="url(#mask3_195_5616)">
<path d="M391.727 29.937L364.978 26.2644C351.846 24.4615 339.74 33.6453 337.937 46.777L334.264 73.526C332.461 86.6577 341.645 98.7645 354.777 100.567L381.526 104.24C394.657 106.043 406.764 96.8591 408.567 83.7274L412.24 56.9783C414.043 43.8467 404.859 31.7399 391.727 29.937Z" fill="black"/>
<path fill-rule="evenodd" clip-rule="evenodd" d="M407.954 86.7637C407.161 89.6765 405.826 92.3636 404.101 94.6951L371.394 71.3197L388.269 94.0624L377.091 92.5278L365.991 71.6203L363.379 90.6452L354.291 89.3976L361.5 36.8901L370.588 38.1378L367.972 57.1923L384.298 40.0352L395.476 41.5698L372.473 59.5023L410.903 45.2592C411.956 48.0188 412.486 50.9503 412.465 53.9039L376.18 62.9725L411.068 65.5114L409.731 75.2536L375.249 68.1022L407.956 86.7489L407.954 86.7637Z" fill="url(#paint15_radial_195_5616)"/>
</g>
</g>
<g clip-path="url(#clip14_195_5616)">
<path d="M1264.87 90.3973C1269.51 82.0522 1277.36 75.8514 1286.69 73.159C1296.01 70.4666 1306.05 71.5032 1314.6 76.0408C1323.14 80.5783 1329.49 88.2451 1332.24 97.3546C1335 106.464 1333.94 116.27 1329.29 124.615C1324.65 132.96 1316.8 139.161 1307.47 141.853C1298.15 144.546 1288.11 143.509 1279.57 138.972C1271.02 134.434 1264.68 126.767 1261.92 117.658C1259.16 108.548 1260.22 98.7425 1264.87 90.3973Z" fill="white"/>
<path d="M1261.19 129.461C1258.43 137.822 1258.8 148.242 1270.72 154.946L1253.23 145.657C1244.99 141.277 1238.86 133.879 1236.2 125.09C1233.53 116.302 1234.55 106.842 1239.03 98.7935L1258.04 64.6513C1262.52 56.6023 1270.09 50.6229 1279.09 48.0285C1288.09 45.4342 1297.78 46.4373 1306.03 50.8172L1323.71 60.2099C1335.97 66.8677 1337.61 78.0649 1334.8 86.521C1333.31 91.0412 1328.73 97.2345 1326.89 99.5009L1307.78 93.5288C1296.11 89.8383 1288.19 92.681 1281 101.25C1276 107.245 1271.64 112.373 1268.69 115.994C1265.58 120.131 1263.06 124.661 1261.19 129.461Z" fill="url(#paint16_linear_195_5616)"/>
<path d="M1323.62 60.1601C1335.48 66.831 1337.05 77.8892 1334.27 86.2666C1332.74 90.813 1327.39 96.8669 1325.57 99.0962C1322.64 102.699 1318.28 107.829 1313.28 113.827C1306.1 122.4 1298.21 125.233 1286.57 121.582L1268.79 116.148C1266.95 118.415 1261.66 124.404 1260.19 128.903C1257.35 137.376 1258.42 148.263 1270.63 154.897L1288.25 164.255C1296.47 168.619 1306.13 169.607 1315.1 167.001C1324.08 164.396 1331.64 158.41 1336.12 150.361L1355.13 116.219C1359.61 108.17 1360.64 98.717 1358 89.9398C1355.36 81.1625 1349.26 73.7798 1341.04 69.4158L1323.62 60.1601Z" fill="url(#paint17_linear_195_5616)"/>
</g>
<g clip-path="url(#clip15_195_5616)">
<path d="M65.4059 83.5167L44.0146 95.4196C33.5131 101.263 29.737 114.513 35.5804 125.015L47.4833 146.406C53.3267 156.907 66.5768 160.683 77.0782 154.84L98.4696 142.937C108.971 137.094 112.747 123.844 106.904 113.342L95.0009 91.9509C89.1575 81.4494 75.9074 77.6733 65.4059 83.5167Z" fill="#7F5FFF"/>
<path fill-rule="evenodd" clip-rule="evenodd" d="M91.4691 87.6604C88.1544 84.1676 83.7758 81.8754 79.0227 81.1446C74.2695 80.4138 69.4117 81.2859 65.2139 83.6236L52.7476 90.5603C52.7221 91.0712 52.7808 91.5665 52.8395 92.0617C52.9075 92.6293 52.9756 93.197 52.9371 93.8238C52.81 95.711 51.4203 97.6953 50.2983 99.2978C49.4492 100.5 48.7366 101.502 48.8652 102.067C49.2958 103.954 53.1392 105.433 54.7475 105.206C56.1441 104.988 56.7455 103.535 57.3834 101.954C57.9193 100.662 58.4997 99.2832 59.5585 98.4301C61.9231 96.5554 72.0876 92.0795 75.1592 93.786C79.0524 95.1595 81.2263 99.6788 80.1264 101.098C79.5475 101.839 77.9098 101.819 76.1327 101.799C74.2714 101.794 72.2457 101.773 71.0764 102.594C70.5482 102.981 69.9471 103.766 69.3066 104.619C68.4141 105.799 67.4178 107.098 66.4175 107.5C65.5723 107.846 64.3715 107.163 63.1773 106.493C62.4391 106 61.6207 105.641 60.7592 105.432C59.2475 105.248 53.861 110.015 52.6969 111.626C51.2506 113.564 50.3876 122.257 51.5227 124.575C52.8386 127.274 61.0439 129.633 63.3919 128.87C64.5397 128.511 65.7625 127.395 66.9261 126.313C68.2776 125.095 69.57 123.911 70.5988 124.006C71.4882 124.101 73.9448 126.957 76.8363 130.316C81.4661 135.658 87.1925 142.33 89.4463 141.092C91.7659 139.832 93.2018 127.575 93.2335 125.322C93.2776 123.341 92.118 121.285 91.1826 119.632C90.6351 118.648 90.1734 117.818 90.0737 117.221C89.9368 116.335 90.3962 114.961 90.8609 113.57C91.4263 111.858 92.0272 110.126 91.5757 109.12C91.239 108.375 89.4962 107.637 87.7534 106.899C85.6276 106.002 83.5202 105.109 83.9343 104.211C84.2057 103.641 85.7151 103.236 87.4164 102.786C89.5372 102.227 91.9762 101.6 92.6149 100.437C93.1303 99.4981 92.6565 97.7279 92.0807 95.5797C91.575 93.6409 90.9834 91.4084 90.956 89.188C90.9551 88.6296 91.1252 88.1002 91.4691 87.6604ZM97.4097 125.172C97.1708 123.907 96.852 120.467 98.0564 120.154L98.063 120.166C99.1175 119.89 100.387 122.645 100.635 123.703C100.94 125.086 101.039 129.021 99.6657 129.226C98.5282 129.409 97.6246 126.31 97.4031 125.16L97.4097 125.172ZM57.484 155.554C53.2236 153.64 49.6953 150.395 47.4283 146.307L46.4718 144.588L47.9946 144.346C49.9605 143.982 51.7345 143.663 53.0189 144.857C54.3799 146.134 54.7932 147.907 55.2318 149.836C55.6426 151.688 56.0971 153.702 57.484 155.554Z" fill="#FEE14A"/>
</g>
<g clip-path="url(#clip16_195_5616)">
<path fill-rule="evenodd" clip-rule="evenodd" d="M1323.54 583.963C1319.6 580.223 1314.3 578.173 1308.79 578.265C1303.28 578.356 1298.03 580.582 1294.18 584.452L1277.85 600.867C1273.64 605.098 1271.69 610.656 1271.96 616.113L1318.16 617.291L1303.04 608.637C1298.9 606.266 1296.35 601.483 1298.85 597.459C1299.42 596.495 1300.17 595.648 1301.07 594.967C1301.97 594.287 1303 593.785 1304.1 593.492C1305.19 593.199 1306.34 593.12 1307.46 593.259C1308.59 593.398 1309.67 593.753 1310.66 594.303L1346.49 614.488C1346.54 609.16 1344.46 603.831 1340.24 599.829L1323.54 583.963ZM1296.85 647.081L1297.08 646.996L1297.2 646.653C1297.83 645.011 1298.15 644.144 1300.01 643.199L1317.09 634.098L1282.21 633.297L1282.18 633.36L1294.89 645.427C1295.52 646.027 1296.17 646.572 1296.85 647.081Z" fill="url(#paint18_linear_195_5616)"/>
<path fill-rule="evenodd" clip-rule="evenodd" d="M1282.42 633.586L1278.16 629.539C1274.1 625.688 1272 620.631 1271.82 615.531L1316.56 616.825L1301.65 608.227C1300.66 607.66 1299.8 606.907 1299.11 606.011C1298.42 605.115 1297.92 604.094 1297.64 603.007C1297.36 601.921 1297.31 600.792 1297.48 599.686C1297.65 598.58 1298.05 597.518 1298.65 596.565C1299.86 594.622 1301.81 593.224 1304.07 592.671C1306.33 592.118 1308.72 592.454 1310.73 593.607L1346.77 614.393C1346.82 619.75 1344.7 624.906 1340.88 628.738L1324.53 645.172C1320.91 648.803 1316.04 650.985 1310.86 651.291C1305.68 651.597 1300.56 650.006 1296.51 646.828C1297.27 644.88 1298.74 643.278 1300.64 642.331L1316.13 634.552L1282.42 633.586Z" fill="url(#paint19_linear_195_5616)"/>
</g>
<defs>
<filter id="filter0_f_195_5616" x="1208.1" y="250.1" width="130.844" height="130.844" filterUnits="userSpaceOnUse" color-interpolation-filters="sRGB">
<feFlood flood-opacity="0" result="BackgroundImageFix"/>
<feBlend mode="normal" in="SourceGraphic" in2="BackgroundImageFix" result="shape"/>
<feGaussianBlur stdDeviation="4.95" result="effect1_foregroundBlur_195_5616"/>
</filter>
<filter id="filter1_f_195_5616" x="101" y="489" width="154.089" height="154.089" filterUnits="userSpaceOnUse" color-interpolation-filters="sRGB">
<feFlood flood-opacity="0" result="BackgroundImageFix"/>
<feBlend mode="normal" in="SourceGraphic" in2="BackgroundImageFix" result="shape"/>
<feGaussianBlur stdDeviation="5" result="effect1_foregroundBlur_195_5616"/>
</filter>
<filter id="filter2_f_195_5616" x="177.1" y="171.1" width="107.712" height="107.712" filterUnits="userSpaceOnUse" color-interpolation-filters="sRGB">
<feFlood flood-opacity="0" result="BackgroundImageFix"/>
<feBlend mode="normal" in="SourceGraphic" in2="BackgroundImageFix" result="shape"/>
<feGaussianBlur stdDeviation="4.95" result="effect1_foregroundBlur_195_5616"/>
</filter>
<filter id="filter3_f_195_5616" x="901.1" y="510.6" width="146.242" height="146.242" filterUnits="userSpaceOnUse" color-interpolation-filters="sRGB">
<feFlood flood-opacity="0" result="BackgroundImageFix"/>
<feBlend mode="normal" in="SourceGraphic" in2="BackgroundImageFix" result="shape"/>
<feGaussianBlur stdDeviation="4.95" result="effect1_foregroundBlur_195_5616"/>
</filter>
<filter id="filter4_f_195_5616" x="13.3046" y="278.061" width="148.772" height="160.162" filterUnits="userSpaceOnUse" color-interpolation-filters="sRGB">
<feFlood flood-opacity="0" result="BackgroundImageFix"/>
<feBlend mode="normal" in="SourceGraphic" in2="BackgroundImageFix" result="shape"/>
<feGaussianBlur stdDeviation="4.95" result="effect1_foregroundBlur_195_5616"/>
</filter>
<linearGradient id="paint0_linear_195_5616" x1="1128.01" y1="474.335" x2="1194.43" y2="450.187" gradientUnits="userSpaceOnUse">
<stop stop-color="#279B53"/>
<stop offset="1" stop-color="#39E674"/>
</linearGradient>
<linearGradient id="paint1_linear_195_5616" x1="1138.53" y1="480.191" x2="1189.39" y2="461.699" gradientUnits="userSpaceOnUse">
<stop stop-color="#5EDF60"/>
<stop offset="1" stop-color="#84EE60"/>
</linearGradient>
<linearGradient id="paint2_linear_195_5616" x1="151.454" y1="499" x2="155.174" y2="679.365" gradientUnits="userSpaceOnUse">
<stop stop-color="#FCE000"/>
<stop offset="0.47" stop-color="#FAAA00"/>
<stop offset="1" stop-color="#FCE000"/>
</linearGradient>
<radialGradient id="paint3_radial_195_5616" cx="0" cy="0" r="1" gradientUnits="userSpaceOnUse" gradientTransform="translate(157.646 661.888) rotate(-63.6535) scale(119.829)">
<stop offset="0.4" stop-color="#302F28"/>
<stop offset="0.57" stop-color="#282724"/>
<stop offset="0.69" stop-color="#272623"/>
<stop offset="0.89" stop-color="#242321"/>
</radialGradient>
<linearGradient id="paint4_linear_195_5616" x1="222.878" y1="535.569" x2="205.106" y2="634.826" gradientUnits="userSpaceOnUse">
<stop stop-color="#FEFEFE"/>
<stop offset="0.27" stop-color="#F9F8F7"/>
<stop offset="1" stop-color="#EAE3CF"/>
</linearGradient>
<linearGradient id="paint5_linear_195_5616" x1="1070.43" y1="136.476" x2="1067.33" y2="148.051" gradientUnits="userSpaceOnUse">
<stop stop-color="#42FF98"/>
<stop offset="1" stop-color="#00C7E2"/>
</linearGradient>
<linearGradient id="paint6_linear_195_5616" x1="1060.6" y1="148.646" x2="1069.12" y2="136.211" gradientUnits="userSpaceOnUse">
<stop/>
<stop offset="1" stop-opacity="0"/>
</linearGradient>
<linearGradient id="paint7_linear_195_5616" x1="1047.09" y1="167.28" x2="1032.61" y2="159.676" gradientUnits="userSpaceOnUse">
<stop stop-color="#42FF98"/>
<stop offset="1" stop-color="#00C7E2"/>
</linearGradient>
<linearGradient id="paint8_linear_195_5616" x1="1031.37" y1="169.458" x2="1042.33" y2="172.984" gradientUnits="userSpaceOnUse">
<stop/>
<stop offset="1" stop-opacity="0"/>
</linearGradient>
<linearGradient id="paint9_linear_195_5616" x1="1034.43" y1="156.835" x2="1026.44" y2="186.663" gradientUnits="userSpaceOnUse">
<stop stop-color="#42FF98"/>
<stop offset="1" stop-color="#00C7E2"/>
</linearGradient>
<linearGradient id="paint10_linear_195_5616" x1="237.269" y1="177.913" x2="228.351" y2="226.863" gradientUnits="userSpaceOnUse">
<stop stop-color="#FEBE7D"/>
<stop offset="1" stop-color="#FC4714"/>
</linearGradient>
<radialGradient id="paint11_radial_195_5616" cx="0" cy="0" r="1" gradientUnits="userSpaceOnUse" gradientTransform="translate(975.114 596.119) rotate(-72.9692) scale(80.0119 83.793)">
<stop stop-color="#EA190F"/>
<stop offset="0.45" stop-color="#FE6837"/>
<stop offset="1" stop-color="#FF8548"/>
</radialGradient>
<linearGradient id="paint12_linear_195_5616" x1="969.358" y1="576.916" x2="939.622" y2="632.023" gradientUnits="userSpaceOnUse">
<stop stop-color="#FFE772"/>
<stop offset="1" stop-color="#FFD851"/>
</linearGradient>
<linearGradient id="paint13_linear_195_5616" x1="126.068" y1="361.926" x2="33.6855" y2="347.441" gradientUnits="userSpaceOnUse">
<stop stop-color="#4040F9"/>
<stop offset="1" stop-color="#0101F7"/>
</linearGradient>
<linearGradient id="paint14_linear_195_5616" x1="23.9858" y1="359.293" x2="93.5718" y2="351.958" gradientUnits="userSpaceOnUse">
<stop stop-color="#CADEF2" stop-opacity="0.2"/>
<stop offset="0.02" stop-color="#C3D6EA" stop-opacity="0.2"/>
<stop offset="0.17" stop-color="#96A4B2" stop-opacity="0.17"/>
<stop offset="0.31" stop-color="#6F7982" stop-opacity="0.14"/>
<stop offset="0.46" stop-color="#4F555B" stop-opacity="0.11"/>
<stop offset="0.6" stop-color="#36393D" stop-opacity="0.08"/>
<stop offset="0.74" stop-color="#242627" stop-opacity="0.05"/>
<stop offset="0.88" stop-color="#1A1A1A" stop-opacity="0.02"/>
<stop offset="1" stop-color="#161616" stop-opacity="0"/>
</linearGradient>
<radialGradient id="paint15_radial_195_5616" cx="0" cy="0" r="1" gradientUnits="userSpaceOnUse" gradientTransform="translate(349.856 25.9325) rotate(41.0249) scale(106.881 99.3418)">
<stop offset="0.5" stop-color="#FF5500"/>
<stop offset="0.81" stop-color="#BBFF00"/>
<stop offset="1" stop-color="#00FFBB"/>
</radialGradient>
<linearGradient id="paint16_linear_195_5616" x1="1222.14" y1="129.142" x2="1347.59" y2="78.116" gradientUnits="userSpaceOnUse">
<stop stop-color="#D2DFFF"/>
<stop offset="1" stop-color="#4E7FFF"/>
</linearGradient>
<linearGradient id="paint17_linear_195_5616" x1="1372.02" y1="85.8703" x2="1246.88" y2="133.207" gradientUnits="userSpaceOnUse">
<stop stop-color="#D2DFFF"/>
<stop offset="1" stop-color="#4E7FFF"/>
</linearGradient>
<linearGradient id="paint18_linear_195_5616" x1="1311.68" y1="657.57" x2="1304.51" y2="522.241" gradientUnits="userSpaceOnUse">
<stop offset="0.01" stop-color="#3E3BA0"/>
<stop offset="1" stop-color="#498BFF"/>
</linearGradient>
<linearGradient id="paint19_linear_195_5616" x1="1267.59" y1="610.871" x2="1439.06" y2="661.36" gradientUnits="userSpaceOnUse">
<stop stop-color="#FFF11D"/>
<stop offset="1" stop-color="#FFB800"/>
</linearGradient>
<clipPath id="clip0_195_5616">
<rect width="79" height="79" fill="white" transform="translate(1267.37 260) rotate(38.6816)"/>
</clipPath>
<clipPath id="clip1_195_5616">
<rect width="90" height="90" fill="white" transform="translate(1100 432.753) rotate(-19.9807)"/>
</clipPath>
<clipPath id="clip2_195_5616">
<rect width="102" height="102" fill="white" transform="translate(151.454 499) rotate(23.3665)"/>
</clipPath>
<clipPath id="clip3_195_5616">
<rect width="80" height="80" fill="white" transform="translate(1022.71 104) rotate(15)"/>
</clipPath>
<clipPath id="clip4_195_5616">
<rect width="84" height="84" fill="white" transform="translate(651 515) rotate(-23.896)"/>
</clipPath>
<clipPath id="clip5_195_5616">
<rect width="94" height="94" fill="white" transform="translate(313 324) rotate(12.032)"/>
</clipPath>
<clipPath id="clip6_195_5616">
<rect width="65" height="65" fill="white" transform="translate(187 211.526) rotate(-28.0104)"/>
</clipPath>
<clipPath id="clip7_195_5616">
<rect width="96" height="96" fill="white" transform="translate(911 559) rotate(-23.6435)"/>
</clipPath>
<clipPath id="clip8_195_5616">
<rect width="79" height="79" fill="white" transform="translate(961.894 309) rotate(15.3361)"/>
</clipPath>
<clipPath id="clip9_195_5616">
<rect width="87" height="87" fill="white" transform="translate(375 556)"/>
</clipPath>
<clipPath id="clip10_195_5616">
<rect width="111" height="124.672" fill="white" transform="translate(42.5166 287.961) rotate(8.91105)"/>
</clipPath>
<clipPath id="clip11_195_5616">
<rect width="77" height="77" fill="white" transform="translate(537 85.2156) rotate(-24.7326)"/>
</clipPath>
<clipPath id="clip12_195_5616">
<rect width="82.1943" height="82.1943" fill="white" transform="translate(808.515) rotate(18.7912)"/>
</clipPath>
<clipPath id="clip13_195_5616">
<rect width="75" height="75" fill="white" transform="translate(341.201 23) rotate(7.81753)"/>
</clipPath>
<clipPath id="clip14_195_5616">
<rect width="109.933" height="108.542" fill="white" transform="matrix(0.883155 0.469081 -0.486359 0.873759 1274.93 34.3026)"/>
</clipPath>
<clipPath id="clip15_195_5616">
<rect width="68" height="68" fill="white" transform="translate(25 106) rotate(-29.0931)"/>
</clipPath>
<clipPath id="clip16_195_5616">
<rect width="64.3577" height="64.3149" fill="white" transform="matrix(0.725059 0.688687 -0.70523 0.708978 1308.69 569.86)"/>
</clipPath>
</defs>
</svg>
