<svg width="176" height="31" viewBox="0 0 176 31" fill="none" xmlns="http://www.w3.org/2000/svg">
<path d="M12.0954 3.60246H10.182C6.6698 3.60246 4.82603 5.51412 4.82603 8.33771C4.82603 11.5501 6.10249 13.0432 8.72889 14.9536L10.8898 16.5256L4.64939 26.5851H0L5.60351 17.5951C2.37885 15.1099 0.568603 12.6997 0.568603 8.60767C0.567313 3.47975 3.86805 0 10.1433 0H16.3966V26.5851H12.0941L12.0954 3.60246ZM34.0104 7.35217V26.5903H29.7904V18.5587H24.1534V26.5903H19.9333V7.35217H24.1534V14.9601H29.7904V7.35217H34.0104ZM51.1743 7.35217H38.8623V8.99258C38.8623 13.6942 38.5786 19.778 37.0881 22.9942H35.7769V31H39.6784V26.5903H49.1461V31H53.0657V22.9968H51.1884L51.1755 7.35217H51.1743ZM46.9529 22.9968H40.9987C42.1682 20.088 42.4776 14.8425 42.4776 11.5191V10.943H46.9452L46.9529 22.9968ZM68.6217 16.1885C68.6217 9.50279 65.8883 6.96725 61.6696 6.96725C56.5289 6.96725 54.0804 11.213 54.0804 17.0293C54.0804 23.715 57.1298 26.9752 62.5218 26.9752C65.2166 26.9752 67.2021 26.2092 68.4438 25.2895V21.5786C66.8031 22.7076 64.869 23.3321 62.879 23.3753C59.7948 23.3753 58.6228 21.8098 58.4436 18.5961H68.6243L68.6217 16.1885ZM64.3295 15.2275H58.4423C58.5506 12.1623 59.5769 10.5607 61.5974 10.5607C63.6912 10.5607 64.3308 12.4388 64.3308 14.849L64.3295 15.2275ZM75.677 17.1443V26.5903H71.4557V7.35217H75.6758V16.2246L81.6325 7.35087H85.8887L79.9319 16.2246L86.7048 26.5903H81.9175L75.677 17.1443ZM86.4586 16.988C86.4586 11.1368 89.2577 6.95821 94.6498 6.95821C96.7411 6.95821 98.3012 7.34312 99.1896 7.87529V11.7387C97.9626 10.9783 96.5515 10.5683 95.1088 10.5529C92.3432 10.5529 90.8204 12.6971 90.8204 16.8679C90.8204 20.8462 92.0621 23.3675 95.074 23.3675C96.8469 23.3675 98.1259 22.8741 99.1896 22.0681V25.7791C98.1568 26.5812 96.7747 26.9661 94.8252 26.9661C89.1881 26.9752 86.4586 23.4166 86.4586 16.988ZM117.516 12.6558H116.794V15.7351H115.546V8.32608H116.794V11.5811H117.537L119.93 8.32608H121.271L118.527 12.0254L121.384 15.7351H119.878L117.516 12.6558ZM124.457 15.8384C124.079 15.8384 123.727 15.7764 123.405 15.6524C123.089 15.5332 122.801 15.3503 122.559 15.1151C122.317 14.8619 122.128 14.5634 122.002 14.2367C121.865 13.8559 121.799 13.4532 121.806 13.0484C121.806 12.6015 121.871 12.205 122.002 11.8601C122.139 11.5165 122.324 11.2272 122.559 10.9921C122.799 10.7518 123.081 10.5723 123.405 10.4547C123.727 10.3307 124.079 10.2687 124.457 10.2687C124.835 10.2687 125.185 10.3307 125.509 10.4547C125.831 10.5723 126.115 10.7518 126.355 10.9921C126.596 11.2272 126.784 11.5165 126.922 11.8601C127.06 12.205 127.129 12.6015 127.129 13.0484C127.129 13.4966 127.06 13.8932 126.922 14.2367C126.795 14.5652 126.602 14.8642 126.355 15.1151C126.114 15.3502 125.833 15.5284 125.509 15.6524C125.187 15.7764 124.835 15.8384 124.457 15.8384ZM124.457 14.8361C124.87 14.8361 125.21 14.6914 125.478 14.4021C125.753 14.1127 125.891 13.662 125.891 13.0484C125.891 12.4426 125.753 11.9944 125.478 11.7051C125.351 11.5608 125.193 11.4463 125.017 11.3696C124.84 11.2928 124.649 11.2557 124.457 11.2607C124.051 11.2607 123.71 11.4093 123.436 11.7051C123.168 11.9944 123.034 12.4426 123.034 13.0484C123.034 13.662 123.168 14.1127 123.436 14.4021C123.71 14.6914 124.051 14.8361 124.457 14.8361ZM133.359 11.8497L131.78 15.2184H130.904L129.418 11.8187V15.7351H128.335V10.3721H129.975L131.44 13.6994L132.987 10.3721H134.555V15.7351H133.359V11.8497ZM139.19 14.7948C139.131 14.9278 139.054 15.0527 138.963 15.1667C138.762 15.443 138.476 15.6461 138.149 15.7454C137.938 15.811 137.719 15.8425 137.499 15.8384C137.278 15.8404 137.058 15.8055 136.849 15.7351C136.656 15.6759 136.476 15.5774 136.323 15.4458C136.175 15.309 136.055 15.1439 135.972 14.9601C135.886 14.7431 135.844 14.5114 135.848 14.2781C135.848 13.693 136.065 13.2551 136.498 12.9657C136.931 12.67 137.544 12.5214 138.334 12.5214H139.149V12.1907C139.149 11.8394 139.06 11.5992 138.881 11.4674C138.703 11.3305 138.406 11.2607 137.994 11.2607C137.643 11.2607 137.313 11.3124 137.004 11.4158C136.725 11.5024 136.455 11.6167 136.199 11.7568V10.7544C136.815 10.4366 137.497 10.2701 138.19 10.2687C138.878 10.2687 139.407 10.4134 139.778 10.7028C140.157 10.9856 140.346 11.4403 140.346 12.0667V15.0841C140.353 15.1603 140.356 15.2391 140.356 15.3217L140.377 15.5594L140.397 15.7351H139.294C139.236 15.4492 139.205 15.1587 139.201 14.8671L139.19 14.7948ZM137.829 14.9084C138.084 14.9084 138.293 14.8567 138.458 14.7534C138.631 14.6436 138.767 14.5196 138.871 14.3814C139.025 14.1728 139.121 13.9267 139.149 13.6684V13.3067H138.406C137.932 13.3067 137.585 13.383 137.365 13.5341C137.26 13.5991 137.174 13.6907 137.116 13.7996C137.058 13.9085 137.03 14.0308 137.035 14.1541C137.035 14.3892 137.1 14.5752 137.231 14.7121C137.369 14.8438 137.568 14.9084 137.829 14.9084ZM145.299 13.4721H143.04V15.7351H141.844V10.3721H143.04V12.5008H145.299V10.3721H146.496V15.7351H145.299V13.4721ZM147.899 14.7638C148.069 14.6089 148.196 14.4133 148.27 14.1954C148.367 13.9552 148.441 13.6555 148.497 13.2964C148.552 12.9322 148.594 12.5085 148.621 12.0254C148.648 11.5436 148.672 10.9921 148.693 10.3721H152.612V14.7638H153.417V17.2644H152.375L152.282 15.7351H148.59L148.497 17.2644H147.445V14.7638H147.899ZM151.416 14.7638V11.3434H149.724C149.69 12.1907 149.632 12.8934 149.549 13.4514C149.473 14.003 149.347 14.4408 149.167 14.7638H151.416ZM157.558 14.7948C157.498 14.9275 157.422 15.0524 157.332 15.1667C157.13 15.443 156.844 15.6461 156.517 15.7454C156.306 15.811 156.087 15.8425 155.867 15.8384C155.646 15.8404 155.426 15.8055 155.217 15.7351C155.023 15.6765 154.844 15.5779 154.691 15.4458C154.542 15.3094 154.423 15.1441 154.34 14.9601C154.254 14.7431 154.212 14.5114 154.216 14.2781C154.216 13.693 154.433 13.2551 154.866 12.9657C155.299 12.67 155.912 12.5214 156.702 12.5214H157.517V12.1907C157.517 11.8394 157.428 11.5992 157.249 11.4674C157.07 11.3305 156.775 11.2607 156.362 11.2607C156.011 11.2607 155.681 11.3124 155.372 11.4158C155.093 11.502 154.823 11.6162 154.567 11.7568V10.7544C154.837 10.6148 155.12 10.504 155.413 10.4237C155.764 10.3204 156.145 10.2687 156.558 10.2687C157.245 10.2687 157.775 10.4134 158.146 10.7028C158.524 10.9856 158.714 11.4403 158.714 12.0667V15.0841C158.72 15.1603 158.724 15.2391 158.724 15.3217L158.745 15.5594C158.751 15.6292 158.759 15.6873 158.765 15.7351H157.662C157.604 15.4492 157.573 15.1587 157.569 14.8671L157.558 14.7948ZM156.197 14.9084C156.451 14.9084 156.661 14.8567 156.826 14.7534C156.998 14.6436 157.136 14.5196 157.239 14.3814C157.393 14.1728 157.489 13.9267 157.517 13.6684V13.3067H156.775C156.3 13.3067 155.953 13.383 155.733 13.5341C155.628 13.5989 155.542 13.6905 155.484 13.7994C155.426 13.9083 155.398 14.0307 155.403 14.1541C155.403 14.3892 155.468 14.5752 155.599 14.7121C155.737 14.8438 155.935 14.9084 156.197 14.9084ZM115.278 25.0971C115.437 24.9602 115.56 24.7703 115.649 24.5287C115.746 24.2885 115.821 23.9888 115.876 23.6297C115.932 23.2655 115.973 22.8418 116 22.3587C116.027 21.877 116.052 21.3254 116.072 20.7054H119.992V25.0971H120.797V27.5977H119.755L119.662 26.0684H115.969L115.876 27.5977H114.824V25.0971H115.278ZM118.795 25.0971V21.6767H117.104C117.069 22.5241 117.011 23.2267 116.928 23.7847C116.852 24.3363 116.726 24.7742 116.547 25.0971H118.795ZM122.389 24.1671C122.475 23.7173 122.524 23.261 122.533 22.8031C122.56 22.2386 122.575 21.5398 122.575 20.7054H126.422V26.0684H125.225V21.6767H123.668C123.655 22.3872 123.627 23.0136 123.585 23.5574C123.558 24.028 123.472 24.4933 123.328 24.9421C123.204 25.3141 123.022 25.6008 122.781 25.7998C122.547 26 122.23 26.0994 121.832 26.0994C121.776 26.0994 121.722 26.0968 121.667 26.0891C121.615 26.0888 121.563 26.0854 121.512 26.0788V24.9627C121.563 24.9742 121.615 24.9811 121.667 24.9834C121.852 24.9834 121.999 24.9188 122.11 24.7871C122.226 24.6502 122.321 24.4435 122.389 24.1671ZM127.92 22.4621C127.92 22.1727 127.977 21.9183 128.087 21.6974C128.196 21.4778 128.348 21.2944 128.54 21.1497C128.739 20.9986 128.977 20.8888 129.252 20.8191C129.534 20.7442 129.844 20.7054 130.18 20.7054H132.171V26.0684H130.975V24.2498H130.211L128.943 26.0684H127.602L129.077 23.9914C128.705 23.8816 128.419 23.7021 128.221 23.4541C128.021 23.2061 127.92 22.8754 127.92 22.4621ZM130.975 23.2991V21.6561H130.273C129.943 21.6561 129.671 21.7181 129.458 21.8421C129.252 21.9661 129.149 22.1727 129.149 22.4621C129.149 22.7592 129.242 22.9723 129.427 23.1027C129.62 23.2345 129.892 23.2991 130.242 23.2991H130.975ZM141.216 23.4024C141.216 23.8506 141.146 24.2472 141.01 24.5907C140.872 24.9356 140.682 25.225 140.442 25.4587C140.208 25.6938 139.927 25.8721 139.597 25.9961C139.273 26.1136 138.922 26.1717 138.544 26.1717C138.159 26.1717 137.804 26.1072 137.482 25.9754C137.162 25.8467 136.876 25.6451 136.646 25.3864C136.399 25.0948 136.21 24.7579 136.089 24.3944C135.95 23.9393 135.884 23.465 135.894 22.9891C135.894 22.5008 135.914 22.0526 135.955 21.6457C135.997 21.2402 136.065 20.8746 136.162 20.5504C136.265 20.2275 136.402 19.9446 136.574 19.7031C136.746 19.4551 136.966 19.242 137.234 19.0624C137.541 18.8659 137.885 18.7357 138.245 18.6801C138.609 18.6258 138.98 18.591 139.359 18.5767C139.778 18.5561 140.094 18.5225 140.308 18.4734C140.521 18.4192 140.703 18.3494 140.855 18.2668V19.3311C140.779 19.3802 140.7 19.4215 140.618 19.4551C140.535 19.4835 140.438 19.5068 140.329 19.5274C140.202 19.5507 140.075 19.5714 139.947 19.5894C139.803 19.6036 139.634 19.6178 139.442 19.6307C139.122 19.6618 138.802 19.6963 138.483 19.7341C138.208 19.7569 137.942 19.8455 137.709 19.9924C137.445 20.175 137.243 20.4348 137.131 20.7364C137.008 21.0542 136.925 21.4391 136.884 21.8938C137.227 21.1162 137.891 20.7261 138.874 20.7261C139.19 20.7261 139.489 20.7881 139.772 20.9121C140.061 21.0296 140.311 21.2014 140.525 21.4287C140.738 21.6561 140.906 21.9351 141.03 22.2658C141.154 22.5964 141.216 22.9762 141.216 23.4024ZM138.544 25.1694C138.963 25.1694 139.308 25.0286 139.576 24.7458C139.851 24.4564 139.988 24.016 139.988 23.4231C139.988 22.8315 139.851 22.3936 139.576 22.1108C139.445 21.9685 139.285 21.8561 139.107 21.7812C138.929 21.7063 138.737 21.6707 138.544 21.6767C138.132 21.6767 137.791 21.8188 137.523 22.1004C137.262 22.3833 137.131 22.8173 137.131 23.4024C137.131 24.0095 137.265 24.4564 137.534 24.7458C137.802 25.0286 138.138 25.1694 138.544 25.1694ZM143.628 24.4461L146.104 20.7054H147.28V26.0684H146.094V22.3484L143.639 26.0684H142.442V20.7054H143.628V24.4461ZM152.774 24.5287C152.781 24.7891 152.717 25.0465 152.588 25.2727C152.471 25.4794 152.306 25.6525 152.093 25.7894C151.887 25.9212 151.643 26.0168 151.361 26.0788C151.066 26.1421 150.765 26.1732 150.463 26.1717C150.009 26.1717 149.638 26.1278 149.349 26.0374C149.116 25.9653 148.891 25.8683 148.679 25.7481V24.7664C148.879 24.8982 149.126 25.0041 149.421 25.0868C149.724 25.163 150.051 25.2004 150.401 25.2004C150.766 25.2004 151.055 25.1462 151.268 25.0351C151.48 24.9253 151.587 24.7393 151.587 24.4771C151.587 24.2291 151.491 24.0534 151.299 23.9501C151.107 23.8403 150.807 23.7847 150.401 23.7847H149.648V22.8754H150.422C150.746 22.8754 150.993 22.8212 151.165 22.7101C151.25 22.66 151.321 22.5872 151.368 22.4997C151.415 22.4123 151.438 22.3134 151.433 22.2141C151.433 21.9738 151.333 21.8085 151.134 21.7181C150.941 21.6225 150.69 21.5734 150.381 21.5734C150.044 21.5734 149.741 21.6147 149.473 21.6974C149.222 21.7656 148.982 21.87 148.761 22.0074V21.0257C148.933 20.916 149.167 20.8191 149.463 20.7364C149.758 20.6473 150.123 20.6021 150.556 20.6021C151.216 20.6021 151.718 20.7235 152.062 20.9637C152.406 21.2053 152.578 21.5566 152.578 22.0177C152.578 22.3691 152.481 22.6455 152.289 22.8444C152.097 23.0382 151.814 23.179 151.443 23.2681C152.33 23.4063 152.774 23.8261 152.774 24.5287ZM157.602 23.8054H155.343V26.0684H154.147V20.7054H155.343V22.8341H157.602V20.7054H158.799V26.0684H157.602V23.8054ZM164.823 25.6757C164.748 25.7248 164.655 25.7791 164.544 25.8411C164.418 25.9029 164.287 25.9547 164.152 25.9961C163.761 26.1167 163.354 26.176 162.945 26.1717C161.963 26.1717 161.227 25.9276 160.738 25.4381C160.257 24.9498 160.016 24.264 160.016 23.3817C160.016 22.9477 160.082 22.559 160.212 22.2141C160.343 21.8705 160.525 21.5812 160.759 21.3461C160.993 21.1058 161.272 20.9224 161.594 20.7984C161.918 20.668 162.272 20.6021 162.657 20.6021C163.056 20.6021 163.413 20.668 163.729 20.7984C164.053 20.9302 164.317 21.1265 164.523 21.3874C164.73 21.6496 164.872 21.9738 164.946 22.3587C165.029 22.745 165.033 23.1957 164.957 23.7124H161.254C161.303 24.202 161.464 24.5701 161.738 24.8181C162.014 25.0596 162.444 25.1797 163.028 25.1797C163.455 25.1797 163.809 25.1281 164.09 25.0247C164.379 24.915 164.624 24.8013 164.823 24.6838V25.6757ZM162.657 21.5527C162.331 21.5435 162.014 21.6579 161.769 21.8731C161.53 22.0875 161.371 22.404 161.295 22.8237H163.812C163.826 22.3897 163.729 22.0694 163.523 21.8628C163.317 21.6561 163.028 21.5527 162.657 21.5527ZM168.74 26.1717C168.306 26.1717 167.918 26.1097 167.574 25.9857C167.247 25.8655 166.949 25.6791 166.697 25.4381C166.451 25.1887 166.261 24.8891 166.14 24.5597C166.004 24.1822 165.938 23.7831 165.944 23.3817C165.944 22.9477 166.01 22.559 166.14 22.2141C166.26 21.8851 166.452 21.5872 166.702 21.3422C166.952 21.0972 167.253 20.9114 167.584 20.7984C167.935 20.668 168.327 20.6021 168.76 20.6021C169.132 20.6021 169.455 20.6434 169.73 20.7261C170.012 20.8087 170.235 20.9121 170.4 21.0361V22.0281C170.183 21.8883 169.947 21.7805 169.699 21.7077C169.417 21.6273 169.125 21.589 168.832 21.5941C167.725 21.5941 167.172 22.1908 167.172 23.3817C167.172 24.574 167.715 25.1694 168.802 25.1694C169.152 25.1694 169.451 25.132 169.699 25.0557C169.943 24.9776 170.178 24.8737 170.4 24.7458V25.7377C170.221 25.8553 169.998 25.9586 169.73 26.0478C169.408 26.1375 169.074 26.1793 168.74 26.1717ZM174.793 25.1281C174.732 25.2606 174.656 25.3854 174.566 25.5001C174.47 25.6299 174.355 25.7448 174.226 25.8411C174.081 25.9445 173.921 26.0247 173.751 26.0788C173.541 26.1444 173.322 26.1758 173.102 26.1717C172.867 26.1717 172.65 26.1382 172.452 26.0684C172.258 26.0098 172.079 25.9113 171.926 25.7791C171.777 25.6427 171.658 25.4775 171.575 25.2934C171.489 25.0765 171.447 24.8447 171.451 24.6114C171.451 24.0263 171.668 23.5884 172.101 23.2991C172.534 23.0033 173.145 22.8547 173.937 22.8547H174.752V22.5241C174.752 22.1727 174.662 21.9325 174.484 21.8007C174.304 21.6638 174.009 21.5941 173.597 21.5941C173.246 21.5941 172.916 21.6457 172.606 21.7491C172.327 21.8352 172.058 21.9495 171.802 22.0901V21.0877C172.015 20.9715 172.297 20.8604 172.648 20.7571C172.998 20.6537 173.38 20.6021 173.793 20.6021C174.48 20.6021 175.01 20.7467 175.381 21.0361C175.759 21.319 175.948 21.7736 175.948 22.4001V25.4174C175.955 25.4936 175.959 25.5724 175.959 25.6551C175.97 25.7931 175.983 25.9309 176 26.0684H174.896C174.839 25.7826 174.808 25.492 174.803 25.2004L174.793 25.1281ZM173.432 25.2417C173.686 25.2417 173.896 25.1901 174.061 25.0868C174.232 24.977 174.37 24.853 174.473 24.7148C174.628 24.5062 174.724 24.26 174.752 24.0018V23.6401H174.009C173.535 23.6401 173.187 23.7163 172.967 23.8674C172.863 23.9323 172.777 24.0238 172.719 24.1327C172.661 24.2417 172.633 24.3641 172.637 24.4874C172.637 24.7225 172.702 24.9085 172.833 25.0454C172.97 25.1772 173.17 25.2417 173.432 25.2417Z" fill="#21201F"/>
</svg>
