<svg width="121" height="21" viewBox="0 0 121 21" fill="none" xmlns="http://www.w3.org/2000/svg">
<path d="M8.31557 2.44038H7.00012C4.58549 2.44038 3.3179 3.73537 3.3179 5.64812C3.3179 7.82425 4.19546 8.83575 6.00111 10.1299L7.48677 11.1947L3.19646 18.0093H0L3.85241 11.9192C1.63546 10.2358 0.390914 8.603 0.390914 5.831C0.390028 2.35725 2.65928 0 6.97352 0H11.2727V18.0093H8.31469L8.31557 2.44038ZM23.3822 4.9805V18.0128H20.4809V12.572H16.6054V18.0128H13.7042V4.9805H16.6054V10.1342H20.4809V4.9805H23.3822ZM35.1823 4.9805H26.7178V6.09175C26.7178 9.27675 26.5228 13.398 25.4981 15.5767H24.5966V21H27.2789V18.0128H33.788V21H36.4827V15.5785H35.1921L35.1832 4.9805H35.1823ZM32.2801 15.5785H28.1866C28.9906 13.608 29.2033 10.0546 29.2033 7.80325V7.413H32.2748L32.2801 15.5785ZM47.1774 10.9664C47.1774 6.43738 45.2982 4.71975 42.3978 4.71975C38.8636 4.71975 37.1803 7.59588 37.1803 11.536C37.1803 16.065 39.2767 18.2735 42.9837 18.2735C44.8364 18.2735 46.2015 17.7546 47.0551 17.1316V14.6177C45.9271 15.3826 44.5974 15.8056 43.2293 15.8349C41.109 15.8349 40.3032 14.7744 40.18 12.5974H47.1792L47.1774 10.9664ZM44.2265 10.3154H40.1791C40.2536 8.239 40.9591 7.154 42.3482 7.154C43.7877 7.154 44.2274 8.42625 44.2274 10.059L44.2265 10.3154ZM52.028 11.6139V18.0128H49.1258V4.9805H52.0271V10.9909L56.1224 4.97962H59.0485L54.9532 10.9909L59.6096 18.0128H56.3183L52.028 11.6139ZM59.4403 11.508C59.4403 7.54425 61.3647 4.71362 65.0717 4.71362C66.5095 4.71362 67.5821 4.97438 68.1929 5.33488V7.952C67.3493 7.43694 66.3792 7.15918 65.3873 7.14875C63.4859 7.14875 62.4391 8.60125 62.4391 11.4266C62.4391 14.1216 63.2927 15.8296 65.3634 15.8296C66.5822 15.8296 67.4616 15.4954 68.1929 14.9494V17.4632C67.4828 18.0066 66.5326 18.2674 65.1923 18.2674C61.3168 18.2735 59.4403 15.8629 59.4403 11.508ZM80.7925 8.57325H80.2961V10.6593H79.4381V5.64025H80.2961V7.84525H80.8067L82.4519 5.64025H83.3738L81.4875 8.14625L83.4518 10.6593H82.4165L80.7925 8.57325ZM85.5642 10.7292C85.3045 10.7292 85.0625 10.6873 84.8408 10.6033C84.6238 10.5225 84.4259 10.3986 84.2594 10.2393C84.0933 10.0677 83.9631 9.86553 83.8764 9.64425C83.7823 9.38623 83.7366 9.11344 83.7417 8.83925C83.7417 8.5365 83.786 8.26787 83.8764 8.03425C83.9704 7.8015 84.098 7.6055 84.2594 7.44625C84.4242 7.2835 84.6184 7.16187 84.8408 7.08225C85.0625 6.99825 85.3045 6.95625 85.5642 6.95625C85.8239 6.95625 86.065 6.99825 86.2875 7.08225C86.5091 7.16187 86.7041 7.2835 86.869 7.44625C87.0348 7.6055 87.1642 7.8015 87.259 8.03425C87.3539 8.26787 87.4008 8.5365 87.4008 8.83925C87.4008 9.14288 87.3539 9.4115 87.259 9.64425C87.1715 9.86678 87.0388 10.0693 86.869 10.2393C86.7032 10.3985 86.51 10.5192 86.2875 10.6033C86.0659 10.6873 85.8239 10.7292 85.5642 10.7292ZM85.5642 10.0503C85.8478 10.0503 86.0818 9.95225 86.2662 9.75625C86.455 9.56025 86.5499 9.25488 86.5499 8.83925C86.5499 8.42887 86.455 8.12525 86.2662 7.92925C86.1786 7.83154 86.0703 7.75397 85.949 7.70197C85.8277 7.64997 85.6964 7.62481 85.5642 7.62825C85.285 7.62825 85.0509 7.72888 84.8621 7.92925C84.6777 8.12525 84.5856 8.42887 84.5856 8.83925C84.5856 9.25488 84.6777 9.56025 84.8621 9.75625C85.0509 9.95225 85.285 10.0503 85.5642 10.0503ZM91.6841 8.02725L90.5991 10.3092H89.9963L88.9751 8.00625V10.6593H88.2305V7.02625H89.3581L90.3651 9.28025L91.4288 7.02625H92.5067V10.6593H91.6841V8.02725ZM95.6934 10.0223C95.6522 10.1124 95.5998 10.197 95.5374 10.2743C95.3986 10.4614 95.202 10.599 94.9771 10.6662C94.8326 10.7107 94.6818 10.732 94.5304 10.7292C94.3786 10.7306 94.2276 10.7069 94.0836 10.6593C93.9507 10.6192 93.8276 10.5524 93.722 10.4633C93.6201 10.3706 93.5381 10.2587 93.4809 10.1342C93.4219 9.98729 93.393 9.83028 93.3958 9.67225C93.3958 9.27588 93.5447 8.97925 93.8425 8.78325C94.1404 8.58288 94.5614 8.48225 95.1048 8.48225H95.665V8.25825C95.665 8.02025 95.6038 7.8575 95.4806 7.76825C95.3583 7.6755 95.1544 7.62825 94.8708 7.62825C94.6297 7.62825 94.4027 7.66325 94.19 7.73325C93.9983 7.79197 93.813 7.86935 93.6369 7.96425V7.28525C94.0602 7.06993 94.5293 6.95716 95.0055 6.95625C95.4789 6.95625 95.8423 7.05425 96.0976 7.25025C96.3582 7.44187 96.4876 7.74988 96.4876 8.17425V10.2183C96.4929 10.2699 96.4947 10.3233 96.4947 10.3793L96.5089 10.5402L96.5231 10.6593H95.7643C95.7247 10.4656 95.7033 10.2688 95.7005 10.0712L95.6934 10.0223ZM94.7573 10.0992C94.9328 10.0992 95.0764 10.0642 95.1899 9.99425C95.3087 9.91988 95.4026 9.83587 95.4735 9.74225C95.5798 9.60096 95.6459 9.43421 95.665 9.25925V9.01425H95.1544C94.8282 9.01425 94.5898 9.06588 94.4382 9.16825C94.3662 9.21231 94.3073 9.27435 94.2675 9.34811C94.2276 9.42187 94.2082 9.50471 94.2113 9.58825C94.2113 9.7475 94.2565 9.8735 94.346 9.96625C94.4409 10.0555 94.5783 10.0992 94.7573 10.0992ZM99.8933 9.12625H98.3402V10.6593H97.5176V7.02625H98.3402V8.46825H99.8933V7.02625H100.716V10.6593H99.8933V9.12625ZM101.68 10.0013C101.797 9.89637 101.885 9.76388 101.936 9.61625C102.002 9.4535 102.053 9.2505 102.092 9.00725C102.13 8.7605 102.158 8.4735 102.177 8.14625C102.195 7.81988 102.212 7.44625 102.226 7.02625H104.921V10.0013H105.474V11.6953H104.758L104.694 10.6593H102.155L102.092 11.6953H101.368V10.0013H101.68ZM104.098 10.0013V7.68425H102.935C102.912 8.25825 102.872 8.73425 102.815 9.11225C102.763 9.48587 102.676 9.7825 102.553 10.0013H104.098ZM108.321 10.0223C108.28 10.1122 108.228 10.1968 108.165 10.2743C108.027 10.4614 107.83 10.599 107.605 10.6662C107.461 10.7107 107.31 10.732 107.158 10.7292C107.007 10.7306 106.856 10.7069 106.712 10.6593C106.579 10.6196 106.455 10.5528 106.35 10.4633C106.248 10.3709 106.166 10.2589 106.109 10.1342C106.05 9.98729 106.021 9.83028 106.024 9.67225C106.024 9.27588 106.173 8.97925 106.471 8.78325C106.768 8.58288 107.189 8.48225 107.733 8.48225H108.293V8.25825C108.293 8.02025 108.232 7.8575 108.109 7.76825C107.985 7.6755 107.782 7.62825 107.499 7.62825C107.258 7.62825 107.031 7.66325 106.818 7.73325C106.626 7.79165 106.441 7.86904 106.265 7.96425V7.28525C106.45 7.19068 106.645 7.11561 106.846 7.06125C107.088 6.99125 107.35 6.95625 107.634 6.95625C108.106 6.95625 108.47 7.05425 108.726 7.25025C108.985 7.44187 109.116 7.74988 109.116 8.17425V10.2183C109.12 10.2699 109.123 10.3233 109.123 10.3793L109.137 10.5402C109.141 10.5875 109.147 10.6269 109.151 10.6593H108.392C108.353 10.4656 108.331 10.2688 108.329 10.0712L108.321 10.0223ZM107.385 10.0992C107.56 10.0992 107.704 10.0642 107.818 9.99425C107.936 9.91988 108.031 9.83587 108.102 9.74225C108.208 9.60096 108.274 9.43421 108.293 9.25925V9.01425H107.782C107.456 9.01425 107.218 9.06588 107.066 9.16825C106.994 9.21217 106.935 9.27419 106.895 9.34798C106.855 9.42177 106.836 9.50468 106.839 9.58825C106.839 9.7475 106.885 9.8735 106.974 9.96625C107.069 10.0555 107.205 10.0992 107.385 10.0992ZM79.2537 17.0013C79.3627 16.9085 79.4478 16.7799 79.509 16.6162C79.5755 16.4535 79.6269 16.2505 79.665 16.0072C79.7031 15.7605 79.7315 15.4735 79.7501 15.1462C79.7687 14.8199 79.7856 14.4463 79.7997 14.0263H82.4945V17.0013H83.0476V18.6952H82.3314L82.2675 17.6592H79.7288L79.665 18.6952H78.9417V17.0013H79.2537ZM81.6719 17.0013V14.6842H80.5089C80.4849 15.2582 80.4451 15.7343 80.3883 16.1122C80.336 16.4859 80.2492 16.7825 80.1259 17.0013H81.6719ZM84.1423 16.3713C84.2018 16.0666 84.2351 15.7575 84.2416 15.4472C84.2602 15.0649 84.27 14.5915 84.27 14.0263H86.9151V17.6592H86.0925V14.6842H85.0217C85.0128 15.1655 84.9933 15.5899 84.9649 15.9583C84.9462 16.2771 84.8867 16.5922 84.7877 16.8962C84.7026 17.1482 84.5776 17.3425 84.4118 17.4773C84.2514 17.6129 84.0333 17.6803 83.7594 17.6803C83.7213 17.6803 83.6841 17.6785 83.6459 17.6733C83.6104 17.6731 83.5748 17.6707 83.5396 17.6663V16.9102C83.5745 16.918 83.6101 16.9227 83.6459 16.9242C83.7736 16.9242 83.8746 16.8805 83.9509 16.7913C84.0307 16.6985 84.0954 16.5585 84.1423 16.3713ZM87.9451 15.2162C87.9451 15.0202 87.9841 14.8479 88.0595 14.6982C88.1348 14.5495 88.2394 14.4253 88.3715 14.3273C88.508 14.2249 88.672 14.1505 88.8608 14.1033C89.0549 14.0525 89.2677 14.0263 89.499 14.0263H90.8677V17.6592H90.0451V16.4272H89.5203L88.648 17.6592H87.7262L88.7402 16.2522C88.4849 16.1779 88.2882 16.0563 88.1516 15.8883C88.0143 15.7203 87.9451 15.4962 87.9451 15.2162ZM90.0451 15.7832V14.6703H89.5629C89.3359 14.6703 89.1489 14.7122 89.0026 14.7962C88.8608 14.8802 88.7899 15.0202 88.7899 15.2162C88.7899 15.4175 88.8537 15.5619 88.9814 15.6502C89.1134 15.7395 89.3005 15.7832 89.5416 15.7832H90.0451ZM97.086 15.8533C97.086 16.1569 97.0381 16.4255 96.9441 16.6583C96.8493 16.8919 96.719 17.0879 96.5541 17.2463C96.3928 17.4055 96.1995 17.5262 95.9726 17.6102C95.7501 17.6899 95.509 17.7292 95.2493 17.7292C94.9842 17.7292 94.7405 17.6855 94.5189 17.5963C94.2986 17.5091 94.1019 17.3725 93.9445 17.1973C93.7742 16.9997 93.6441 16.7715 93.5615 16.5252C93.4659 16.2169 93.4204 15.8956 93.4268 15.5732C93.4268 15.2425 93.441 14.9389 93.4693 14.6632C93.4977 14.3885 93.5447 14.1409 93.6112 13.9212C93.6821 13.7025 93.776 13.5109 93.8948 13.3472C94.0127 13.1792 94.1643 13.0349 94.3487 12.9132C94.5595 12.7801 94.7962 12.6919 95.0436 12.6543C95.2936 12.6175 95.5489 12.5939 95.8095 12.5842C96.0976 12.5702 96.3148 12.5475 96.4619 12.5142C96.6082 12.4775 96.7332 12.4303 96.8378 12.3743V13.0952C96.7855 13.1285 96.7314 13.1565 96.6747 13.1793C96.6179 13.1985 96.5514 13.2142 96.4761 13.2283C96.3889 13.2441 96.3015 13.2581 96.2137 13.2703C96.1144 13.2799 95.9983 13.2895 95.8662 13.2983C95.6462 13.3193 95.4263 13.3426 95.2067 13.3682C95.0178 13.3837 94.8354 13.4437 94.6749 13.5433C94.4931 13.6669 94.3544 13.8429 94.2778 14.0473C94.1927 14.2625 94.1359 14.5233 94.1076 14.8313C94.3433 14.3045 94.7999 14.0402 95.4762 14.0402C95.6934 14.0402 95.899 14.0823 96.0932 14.1663C96.2917 14.2459 96.4637 14.3623 96.6108 14.5163C96.7571 14.6702 96.8732 14.8593 96.9583 15.0833C97.0434 15.3073 97.086 15.5645 97.086 15.8533ZM95.2493 17.0503C95.5374 17.0503 95.774 16.9549 95.9584 16.7633C96.1472 16.5673 96.2421 16.2689 96.2421 15.8673C96.2421 15.4665 96.1472 15.1699 95.9584 14.9783C95.8685 14.8819 95.7587 14.8057 95.6363 14.755C95.5139 14.7043 95.3819 14.6801 95.2493 14.6842C94.9656 14.6842 94.7316 14.7805 94.5472 14.9713C94.3673 15.1629 94.2778 15.4569 94.2778 15.8533C94.2778 16.2645 94.3699 16.5673 94.5543 16.7633C94.7387 16.9549 94.9701 17.0503 95.2493 17.0503ZM98.7445 16.5603L100.446 14.0263H101.255V17.6592H100.439V15.1392L98.7515 17.6592H97.9289V14.0263H98.7445V16.5603ZM105.032 16.6162C105.037 16.7926 104.993 16.967 104.904 17.1203C104.824 17.2603 104.71 17.3775 104.564 17.4702C104.422 17.5595 104.254 17.6243 104.06 17.6663C103.858 17.7091 103.651 17.7303 103.443 17.7292C103.131 17.7292 102.876 17.6995 102.678 17.6383C102.517 17.5894 102.363 17.5237 102.217 17.4422V16.7773C102.354 16.8665 102.524 16.9383 102.727 16.9943C102.935 17.0459 103.16 17.0713 103.401 17.0713C103.652 17.0713 103.85 17.0345 103.997 16.9592C104.143 16.8849 104.216 16.7589 104.216 16.5813C104.216 16.4132 104.15 16.2943 104.018 16.2243C103.886 16.1499 103.68 16.1122 103.401 16.1122H102.883V15.4962H103.415C103.638 15.4962 103.808 15.4595 103.926 15.3843C103.985 15.3503 104.033 15.301 104.066 15.2418C104.098 15.1825 104.113 15.1156 104.11 15.0483C104.11 14.8855 104.042 14.7735 103.904 14.7122C103.772 14.6475 103.599 14.6143 103.387 14.6143C103.155 14.6143 102.947 14.6423 102.763 14.6982C102.59 14.7444 102.425 14.8152 102.273 14.9082V14.2432C102.391 14.1689 102.553 14.1033 102.756 14.0473C102.959 13.9869 103.209 13.9563 103.507 13.9563C103.961 13.9563 104.306 14.0385 104.543 14.2013C104.779 14.3649 104.897 14.6029 104.897 14.9152C104.897 15.1532 104.831 15.3405 104.699 15.4753C104.567 15.6065 104.372 15.7019 104.117 15.7622C104.727 15.8559 105.032 16.1402 105.032 16.6162ZM108.352 16.1263H106.799V17.6592H105.976V14.0263H106.799V15.4682H108.352V14.0263H109.174V17.6592H108.352V16.1263ZM113.316 17.3932C113.264 17.4265 113.2 17.4633 113.124 17.5053C113.037 17.5471 112.947 17.5822 112.855 17.6102C112.586 17.692 112.306 17.7321 112.025 17.7292C111.349 17.7292 110.843 17.5639 110.507 17.2323C110.177 16.9015 110.011 16.4369 110.011 15.8392C110.011 15.5452 110.056 15.2819 110.146 15.0483C110.236 14.8155 110.361 14.6195 110.522 14.4602C110.683 14.2975 110.874 14.1732 111.096 14.0892C111.318 14.0009 111.562 13.9563 111.826 13.9563C112.101 13.9563 112.347 14.0009 112.564 14.0892C112.786 14.1785 112.968 14.3115 113.11 14.4883C113.252 14.6659 113.349 14.8855 113.401 15.1462C113.457 15.4079 113.46 15.7133 113.408 16.0632H110.862C110.896 16.3949 111.006 16.6443 111.195 16.8123C111.385 16.9759 111.68 17.0572 112.082 17.0572C112.375 17.0572 112.619 17.0223 112.812 16.9523C113.011 16.8779 113.179 16.8009 113.316 16.7213V17.3932ZM111.826 14.6003C111.603 14.594 111.385 14.6715 111.216 14.8173C111.052 14.9625 110.943 15.1769 110.89 15.4613H112.621C112.63 15.1672 112.564 14.9503 112.422 14.8103C112.28 14.6703 112.082 14.6003 111.826 14.6003ZM116.009 17.7292C115.711 17.7292 115.444 17.6873 115.207 17.6033C114.983 17.5218 114.777 17.3955 114.604 17.2323C114.435 17.0633 114.304 16.8604 114.221 16.6372C114.128 16.3815 114.082 16.1111 114.087 15.8392C114.087 15.5452 114.132 15.2819 114.221 15.0483C114.304 14.8254 114.436 14.6236 114.608 14.4576C114.779 14.2917 114.987 14.1658 115.214 14.0892C115.455 14.0009 115.725 13.9563 116.023 13.9563C116.278 13.9563 116.5 13.9842 116.689 14.0402C116.883 14.0962 117.037 14.1662 117.15 14.2502V14.9223C117.001 14.8276 116.838 14.7545 116.668 14.7052C116.474 14.6508 116.274 14.6248 116.072 14.6283C115.311 14.6283 114.931 15.0325 114.931 15.8392C114.931 16.6469 115.304 17.0503 116.051 17.0503C116.292 17.0503 116.498 17.0249 116.668 16.9733C116.836 16.9203 116.998 16.8499 117.15 16.7633V17.4353C117.027 17.5149 116.874 17.5849 116.689 17.6453C116.468 17.7061 116.238 17.7344 116.009 17.7292ZM120.17 17.0223C120.128 17.112 120.076 17.1966 120.014 17.2743C119.948 17.3622 119.869 17.4401 119.78 17.5053C119.681 17.5753 119.571 17.6296 119.454 17.6663C119.31 17.7107 119.159 17.732 119.007 17.7292C118.846 17.7292 118.697 17.7065 118.561 17.6592C118.427 17.6196 118.304 17.5528 118.199 17.4632C118.097 17.3709 118.015 17.2589 117.958 17.1343C117.899 16.9873 117.87 16.8303 117.873 16.6723C117.873 16.2759 118.022 15.9792 118.319 15.7832C118.617 15.5829 119.037 15.4823 119.582 15.4823H120.142V15.2582C120.142 15.0202 120.08 14.8575 119.958 14.7683C119.834 14.6755 119.631 14.6283 119.348 14.6283C119.107 14.6283 118.88 14.6632 118.667 14.7332C118.475 14.7916 118.29 14.869 118.114 14.9642V14.2852C118.26 14.2065 118.454 14.1312 118.695 14.0612C118.936 13.9913 119.199 13.9563 119.482 13.9563C119.955 13.9563 120.319 14.0542 120.575 14.2502C120.834 14.4419 120.965 14.7499 120.965 15.1742V17.2183C120.969 17.2699 120.972 17.3232 120.972 17.3792C120.979 17.4728 120.989 17.5661 121 17.6592H120.241C120.202 17.4656 120.18 17.2688 120.177 17.0713L120.17 17.0223ZM119.234 17.0993C119.409 17.0993 119.553 17.0643 119.667 16.9943C119.785 16.9199 119.88 16.8359 119.95 16.7423C120.057 16.601 120.123 16.4342 120.142 16.2593V16.0142H119.631C119.305 16.0142 119.066 16.0659 118.915 16.1683C118.843 16.2122 118.784 16.2742 118.744 16.348C118.704 16.4218 118.685 16.5047 118.688 16.5882C118.688 16.7475 118.733 16.8735 118.823 16.9662C118.917 17.0555 119.054 17.0993 119.234 17.0993Z" fill="white"/>
</svg>
